<?xml version="1.0" encoding="UTF-8"?>
<!-- Created with Inkscape (http://www.inkscape.org/) -->
<svg width="509" height="512" version="1.1" viewBox="0 0 134.67 135.47" xmlns="http://www.w3.org/2000/svg">
 <path d="m28.254 7.9996e-4c-1.0675-0.01469-2.1058 0.17208-3.0684 0.61714-4.3231 1.9989-6.0269 8.4097-2.8538 12.399 2.3625 2.9701 6.7248 3.2626 11.417 2.5184 0 0 4.3348 7.8232 4.3641 12.116 0.1673 24.613-24.274 45.554-23.841 71.447 0.17089 10.199 4.9606 18.211 11.988 25 13.168 12.721 26.422 11.327 41.075 11.327 14.653 0 27.907 1.3932 41.075-11.327 7.0278-6.7886 11.817-14.8 11.988-25 0.43386-25.894-24.008-46.835-23.841-71.447 0.0291-4.2925 4.3641-12.116 4.3641-12.116 4.6918 0.7442 9.054 0.4517 11.417-2.5184 3.1731-3.9889 1.4691-10.4-2.8538-12.399-3.8502-1.7802-8.9111 0.57392-12.215 3.4118-5.0728 4.358-9.692 14.025-10.665 20.642-0.20549 1.397-0.29553 2.7815-0.33639 4.1598h-4.3433v-13.519a1.774 1.774 0 0 0 1.1579-1.6625 1.774 1.774 0 0 0-1.774-1.774 1.774 1.774 0 0 0-1.7738 1.774 1.774 1.774 0 0 0 1.1579 1.6625v13.519h-5.7557v-17.135a1.774 1.774 0 0 0 1.1578-1.6625 1.774 1.774 0 0 0-1.774-1.774 1.774 1.774 0 0 0-1.7738 1.774 1.774 1.774 0 0 0 1.1579 1.6625v17.135h-5.7553v-21.306a1.774 1.774 0 0 0 1.1578-1.6625 1.774 1.774 0 0 0-1.7738-1.774 1.774 1.774 0 0 0-1.774 1.774 1.774 1.774 0 0 0 1.1579 1.6625v21.306h-5.7553v-17.135a1.774 1.774 0 0 0 1.1578-1.6625 1.774 1.774 0 0 0-1.7736-1.774 1.774 1.774 0 0 0-1.774 1.774 1.774 1.774 0 0 0 1.1578 1.6625v17.135h-5.7557v-13.519a1.774 1.774 0 0 0 1.1578-1.6625 1.774 1.774 0 0 0-1.7738-1.774 1.774 1.774 0 0 0-1.774 1.774 1.774 1.774 0 0 0 1.1578 1.6625v13.519h-4.3433c-0.040878-1.3783-0.13091-2.7627-0.33639-4.1598-0.97325-6.6165-5.5924-16.283-10.665-20.642-2.4775-2.1285-5.9434-3.9848-9.146-4.029zm20.104 32.137h4.3867v84.786c-9.0587 2.4636-10.993 0.24065-14.83-2.8702-5.1186-4.1488-8.159-11.688-8.5539-18.265-0.56106-9.346 3.3305-19.2 6.9276-27.937 4.4255-10.749 11.342-22.785 12.071-35.715zm5.6187 0h5.7557v83.521c-1.9692 0.14755-3.9507 0.39858-5.4307 0.84992-0.12002 0.0367-0.20709 0.0516-0.32487 0.0866zm6.9877 0h5.7553v83.351c-0.82755-0.0224-3.0147-0.0578-5.7553 0.0876zm6.9873 0h5.7553v83.44c-2.7405-0.14548-4.9275-0.10997-5.7553-0.0876zm6.9873 0h5.7557v84.457c-0.11777-0.0351-0.20485-0.0501-0.32487-0.0866-1.48-0.45134-3.4616-0.70237-5.4307-0.84992zm6.9877 0h4.3867c0.72843 12.93 7.645 24.965 12.071 35.715 3.5971 8.7367 7.4887 18.59 6.9276 27.937-0.39483 6.577-3.4352 14.117-8.5539 18.265-3.838 3.1108-5.7724 5.3336-14.83 2.8702z" fill="#0b0f99"/>
</svg>
