<?xml version="1.0" encoding="UTF-8"?>
<!-- Created with Inkscape (http://www.inkscape.org/) -->
<svg width="509" height="512" version="1.1" viewBox="0 0 134.67 135.47" xmlns="http://www.w3.org/2000/svg">
 <rect x="-.39688" y="-4.069e-6" width="135.47" height="135.47" fill="#0b0f99"/>
 <path d="m35.031 11.744c-0.88241-0.01214-1.7407 0.14224-2.5364 0.51013-3.5735 1.6523-4.9819 6.9515-2.359 10.249 1.9529 2.4551 5.5588 2.6969 9.4371 2.0817 0 0 3.5832 6.4667 3.6074 10.015 0.13829 20.345-20.065 37.655-19.707 59.059 0.14126 8.4307 4.1005 15.053 9.9097 20.665 10.885 10.515 21.841 9.3631 33.953 9.3631 12.112 0 23.068 1.1516 33.953-9.3631 5.8092-5.6115 9.7684-12.234 9.9097-20.665 0.35864-21.404-19.845-38.714-19.707-59.059 0.02411-3.5482 3.6074-10.015 3.6074-10.015 3.8783 0.61516 7.4841 0.37338 9.4371-2.0817 2.6229-3.2973 1.2144-8.5965-2.359-10.249-3.1826-1.4715-7.366 0.47441-10.097 2.8202-4.1932 3.6024-8.0115 11.593-8.816 17.063-0.16986 1.1548-0.24429 2.2992-0.27806 3.4385h-3.5902v-11.175a1.4664 1.4664 0 0 0 0.95709-1.3742 1.4664 1.4664 0 0 0-1.4664-1.4664 1.4664 1.4664 0 0 0-1.4662 1.4664 1.4664 1.4664 0 0 0 0.95709 1.3742v11.175h-4.7577v-14.164a1.4664 1.4664 0 0 0 0.95707-1.3742 1.4664 1.4664 0 0 0-1.4664-1.4664 1.4664 1.4664 0 0 0-1.4662 1.4664 1.4664 1.4664 0 0 0 0.95709 1.3742v14.164h-4.7574v-17.612a1.4664 1.4664 0 0 0 0.95708-1.3742 1.4664 1.4664 0 0 0-1.4662-1.4664 1.4664 1.4664 0 0 0-1.4664 1.4664 1.4664 1.4664 0 0 0 0.95709 1.3742v17.612h-4.7574v-14.164a1.4664 1.4664 0 0 0 0.95708-1.3742 1.4664 1.4664 0 0 0-1.4661-1.4664 1.4664 1.4664 0 0 0-1.4664 1.4664 1.4664 1.4664 0 0 0 0.95709 1.3742v14.164h-4.7577v-11.175a1.4664 1.4664 0 0 0 0.95709-1.3742 1.4664 1.4664 0 0 0-1.4662-1.4664 1.4664 1.4664 0 0 0-1.4664 1.4664 1.4664 1.4664 0 0 0 0.95709 1.3742v11.175h-3.5902c-0.033788-1.1393-0.10821-2.2837-0.27806-3.4385-0.8045-5.4693-4.6227-13.46-8.816-17.063-2.0479-1.7594-4.9129-3.2939-7.5602-3.3304zm16.618 26.565h3.6261v70.085c-7.488 2.0364-9.0869 0.19892-12.259-2.3725-4.2311-3.4294-6.7443-9.6616-7.0707-15.098-0.46378-7.7255 2.753-15.871 5.7264-23.093 3.6582-8.8852 9.3755-18.834 9.9776-29.522zm4.6445 0h4.7577v69.039c-1.6278 0.12196-3.2657 0.32946-4.4891 0.70255-0.09921 0.0303-0.17118 0.0426-0.26854 0.0716zm5.7761 0h4.7574v68.899c-0.68406-0.0185-2.492-0.0478-4.7574 0.0724zm5.7758 0h4.7574v68.972c-2.2653-0.12026-4.0731-0.0909-4.7574-0.0724zm5.7758 0h4.7577v69.813c-0.09735-0.029-0.16933-0.0414-0.26854-0.0716-1.2234-0.37308-2.8614-0.58059-4.4891-0.70255zm5.7761 0h3.6261c0.60212 10.688 6.3194 20.636 9.9776 29.522 2.9734 7.2218 6.1902 15.367 5.7264 23.093-0.32637 5.4366-2.8396 11.669-7.0707 15.098-3.1725 2.5714-4.7715 4.4088-12.259 2.3725z" fill="#fff"/>
</svg>
